<svg xmlns="http://www.w3.org/2000/svg" x="0px" y="0px"
width="32" height="32"
viewBox="0 0 172 172"
style=" fill:#000000;"><g transform="translate(25.8,25.8) scale(0.7,0.7)"><g fill="none" fill-rule="nonzero" stroke="none" stroke-width="1" stroke-linecap="butt" stroke-linejoin="miter" stroke-miterlimit="10" stroke-dasharray="" stroke-dashoffset="0" font-family="none" font-weight="none" font-size="none" text-anchor="none" style="mix-blend-mode: normal"><path d="M0,172v-172h172v172z" fill="none" stroke="none"></path><g fill="white" stroke="none"><path d="M18.87987,153.12013c2.23887,2.23819 5.86807,2.23819 8.10693,0l59.0132,-59.0132l59.0132,59.0132c2.24964,2.17277 5.82555,2.1417 8.03709,-0.06984c2.21154,-2.21154 2.24261,-5.78745 0.06984,-8.03709l-59.0132,-59.0132l59.0132,-59.0132c1.49042,-1.43949 2.08815,-3.57117 1.56346,-5.57571c-0.52469,-2.00454 -2.09015,-3.57 -4.09469,-4.09469c-2.00454,-0.52469 -4.13622,0.07305 -5.57571,1.56346l-59.0132,59.0132l-59.0132,-59.0132c-2.24964,-2.17277 -5.82555,-2.1417 -8.03709,0.06984c-2.21154,2.21154 -2.24261,5.78745 -0.06984,8.03709l59.0132,59.0132l-59.0132,59.0132c-2.23819,2.23887 -2.23819,5.86807 0,8.10693z"></path></g></g></g></svg>