<svg xmlns="http://www.w3.org/2000/svg" x="0px" y="0px"
width="32" height="20"
viewBox="0 0 172 172"
style=" fill:#000000;"><g fill="none" fill-rule="nonzero" stroke="none" stroke-width="1" stroke-linecap="butt" stroke-linejoin="miter" stroke-miterlimit="10" stroke-dasharray="" stroke-dashoffset="0" font-family="none" font-weight="none" font-size="none" text-anchor="none" style="mix-blend-mode: normal"><path d="M0,172v-172h172v172z" fill="none"></path><g fill="white"><path d="M139.75,32.25h-42.57l14.5125,-18.14062c1.85438,-2.31663 1.47812,-5.70287 -0.8385,-7.55187c-2.31125,-1.85437 -5.70288,-1.4835 -7.55188,0.8385l-17.30212,21.62363l-17.30213,-21.629c-1.85437,-2.31663 -5.24062,-2.69287 -7.55187,-0.8385c-2.322,1.85438 -2.69288,5.23525 -0.8385,7.55188l14.5125,18.146h-42.57c-5.93938,0 -10.75,4.81062 -10.75,10.75v107.5c0,5.93938 4.81062,10.75 10.75,10.75h107.5c5.93938,0 10.75,-4.81062 10.75,-10.75v-107.5c0,-5.93938 -4.81062,-10.75 -10.75,-10.75zM53.75,153.1875c-4.4505,0 -8.0625,-3.612 -8.0625,-8.0625c0,-4.4505 3.612,-8.0625 8.0625,-8.0625c4.4505,0 8.0625,3.612 8.0625,8.0625c0,4.4505 -3.612,8.0625 -8.0625,8.0625zM118.25,129h-64.5c-8.90637,0 -16.125,-7.21863 -16.125,-16.125v-48.375c0,-8.90637 7.21863,-16.125 16.125,-16.125h64.5c8.90637,0 16.125,7.21863 16.125,16.125v48.375c0,8.90637 -7.21863,16.125 -16.125,16.125z"></path></g></g></svg>