<svg xmlns="http://www.w3.org/2000/svg" x="0px" y="0px"
width="32" height="20"
viewBox="0 0 50 50"
style=" fill:white;"><path d="M 44.886719 9.453125 C 44.738281 9.148438 40.992188 2.007813 25.039063 2.007813 C 9.09375 2.007813 5.269531 9.140625 5.117188 9.445313 L 5.007813 9.65625 L 5.007813 9.894531 C 5.007813 44.480469 23.988281 48.804688 24.800781 48.972656 L 25.007813 49.015625 L 25.214844 48.96875 C 26.023438 48.789063 44.992188 44.222656 44.992188 9.894531 L 44.992188 9.664063 Z M 12 20 C 12 20 15.125 16 18 16 C 20.378906 16 23 19 23 19 C 23 19 20.164063 19.546875 17.382813 19.84375 C 14.597656 20.144531 12 20 12 20 Z M 25 38 C 18.085938 38 15 27 15 27 C 15 27 21.296875 29 25 29 C 28.703125 29 35 27 35 27 C 35 27 31.914063 38 25 38 Z M 32.617188 19.84375 C 29.835938 19.546875 27 19 27 19 C 27 19 29.621094 16 32 16 C 34.875 16 38 20 38 20 C 38 20 35.402344 20.144531 32.617188 19.84375 Z"></path></svg>