<svg xmlns="http://www.w3.org/2000/svg" x="0px" y="0px"
width="32" height="20"
viewBox="0 0 172 172"
style=" fill:none;"><g fill="none" fill-rule="nonzero" stroke="none" stroke-width="1" stroke-linecap="butt" stroke-linejoin="miter" stroke-miterlimit="10" stroke-dasharray="" stroke-dashoffset="0" font-family="none" font-weight="none" font-size="none" text-anchor="none" style="mix-blend-mode: normal"><path d="M0,172v-172h172v172z" ></path><g fill="white"><path d="M47.87781,10.32c-1.43448,0 -2.7126,0.88575 -3.21828,2.22391l-37.55781,99.76c-0.3956,1.05608 -0.25359,2.24589 0.38969,3.17125c0.63984,0.93224 1.70027,1.48485 2.82859,1.48485h13.115c1.43792,0 2.73292,-0.89558 3.23172,-2.24406l9.33906,-25.27594h37.90047l3.9775,10.75672l10.23938,-27.1975l-22.75641,-60.45531c-0.50568,-1.33816 -1.79052,-2.22391 -3.225,-2.22391zM55.01313,34.4l13.76,37.90047h-27.52zM109.79781,41.28c-1.43448,0 -2.7126,0.88574 -3.21828,2.2239l-37.55781,99.76c-0.3956,1.05608 -0.25359,2.24589 0.38969,3.17125c0.63984,0.93224 1.70028,1.48485 2.8286,1.48485h13.115c1.43792,0 2.7262,-0.89558 3.225,-2.24406l9.34578,-25.27594h37.90047l9.33906,25.27594c0.50224,1.34848 1.7938,2.24406 3.23172,2.24406h13.22922c1.12832,0 2.18876,-0.55605 2.8286,-1.48485c0.64328,-0.9288 0.78529,-2.11173 0.38969,-3.17125l-37.55781,-99.76c-0.50912,-1.33816 -1.79052,-2.2239 -3.225,-2.2239zM116.93313,65.36l13.76,37.90047h-27.52zM72.18625,154.8c-1.24059,-0.01754 -2.39452,0.63425 -3.01993,1.7058c-0.62541,1.07155 -0.62541,2.39684 0,3.46839c0.62541,1.07155 1.77935,1.72335 3.01993,1.7058h89.44c1.24059,0.01754 2.39452,-0.63425 3.01993,-1.7058c0.62541,-1.07155 0.62541,-2.39684 0,-3.46839c-0.62541,-1.07155 -1.77935,-1.72335 -3.01993,-1.7058z"></path></g></g></svg>